<svg width="16" height="16" viewBox="0 0 16 16" fill="none" xmlns="http://www.w3.org/2000/svg">
<g clip-path="url(#clip0)">
<path d="M15.9266 4.59697L15.9117 11.1763C15.906 13.6912 13.8292 15.7325 11.2822 15.7268L4.61898 15.7117C2.07197 15.7059 0.0044696 13.6552 0.0101666 11.1403L0.0250706 4.56098C0.0307676 2.04606 2.10754 0.00471968 4.65452 0.0104893L11.3178 0.0255835C13.8648 0.0313532 15.9323 2.08208 15.9266 4.59697ZM4.65177 1.23715C2.78977 1.23293 1.27154 2.72525 1.26738 4.56376L1.25247 11.1431C1.24831 12.9816 2.75976 14.4808 4.62173 14.485L11.285 14.5001C13.147 14.5043 14.6652 13.012 14.6694 11.1735L14.6843 4.59418C14.6885 2.75564 13.177 1.25646 11.315 1.25224L4.65177 1.23715Z" fill="#FFFFFE"/>
<path d="M12.2545 7.87833C12.2492 10.2119 10.3222 12.1059 7.95891 12.1006C5.59561 12.0952 3.67725 10.1924 3.68253 7.85891C3.68782 5.52538 5.61478 3.6313 7.97808 3.63666C10.3414 3.64201 12.2597 5.5448 12.2545 7.87833ZM4.92484 7.86172C4.92109 9.51884 6.28342 10.8701 7.96169 10.8739C9.63995 10.8777 11.0084 9.53263 11.0122 7.87551C11.0159 6.21839 9.65357 4.86711 7.9753 4.86331C6.29704 4.85951 4.9286 6.2046 4.92484 7.86172Z" fill="#FFFFFE"/>
<path d="M11.7058 3.58381C11.7065 3.24508 11.9851 2.97111 12.328 2.97189C12.6709 2.97266 12.9482 3.24789 12.9474 3.58662C12.9467 3.92535 12.6681 4.19932 12.3252 4.19854C11.9823 4.19777 11.705 3.92254 11.7058 3.58381Z" fill="#FFFFFE"/>
</g>
<defs>
<clipPath id="clip0">
<rect width="15.7012" height="15.9016" fill="white" transform="matrix(0.00226528 -0.999997 -0.999997 -0.00226528 15.9014 15.7372)"/>
</clipPath>
</defs>
</svg>
