<svg width="17" height="11" viewBox="0 0 17 11" fill="none" xmlns="http://www.w3.org/2000/svg">
<path d="M8.27643 10.1986C10.6238 10.1869 9.77946 8.71325 9.95854 8.28743C9.95426 7.9701 9.95004 7.66488 9.95993 7.47926C10.1089 7.5202 10.4606 7.69528 11.1889 8.39225C12.3134 9.50948 12.6027 10.177 13.5067 10.1725L15.1705 10.1643C15.6979 10.1616 15.9713 9.94311 16.1076 9.76022C16.2393 9.58341 16.3675 9.27349 16.2232 8.7928C15.8462 7.63554 13.6714 5.64476 13.5358 5.43431C13.5559 5.39522 13.5881 5.34329 13.6049 5.31631L13.6035 5.31632C14.028 4.75279 15.6467 2.31484 15.8818 1.34145C15.8825 1.3401 15.8832 1.33808 15.8832 1.33606C16.0108 0.891675 15.8903 0.604507 15.7665 0.442414C15.58 0.199949 15.2846 0.0783781 14.8864 0.0803595L13.2226 0.0886388C12.6655 0.0914109 12.2443 0.372534 12.0332 0.882556C11.68 1.78863 10.6846 3.65332 9.93472 4.31528C9.90709 3.38286 9.9191 2.67078 9.92864 2.14159C9.94784 1.10943 10.0213 0.104568 8.94426 0.109927L6.32914 0.12294C5.6544 0.126297 5.01238 0.862358 5.71579 1.72888C6.33077 2.48827 5.94143 2.91514 6.08379 5.02966C5.56724 4.48426 4.6458 3.00899 3.99005 1.12092C3.80631 0.610176 3.52946 0.137543 2.75669 0.141388L1.09283 0.149668C0.41809 0.153025 0.01696 0.520782 0.0200078 1.13328C0.0268527 2.50888 3.12733 10.2242 8.27643 10.1986ZM2.7617 1.1499C2.90842 1.14917 2.92329 1.14909 3.03367 1.45581C3.70521 3.39086 5.20417 6.25167 6.28862 6.24627C7.10331 6.24222 7.09918 5.41188 7.09762 5.09924L7.08456 2.61025C7.03584 1.78686 6.73226 1.37824 6.53293 1.13046L8.90467 1.12135C8.90608 1.13277 8.90485 3.87464 8.92843 4.5388C8.93313 5.48209 9.68898 6.01891 10.8588 4.82974C12.0925 3.43116 12.9401 1.34533 12.9742 1.26044C13.0243 1.13917 13.068 1.09794 13.2276 1.09715L14.8914 1.08887L14.8982 1.08883C14.8975 1.09085 14.8975 1.09287 14.8969 1.09489C14.7483 1.8016 13.2579 4.05872 12.759 4.75977C12.7509 4.77057 12.7436 4.78204 12.7362 4.79351C12.5169 5.15363 12.339 5.55121 12.7731 6.1071L12.7738 6.1071C12.8133 6.15397 12.9159 6.26372 13.0654 6.41628C13.5302 6.88864 15.1244 8.50378 15.2682 9.14852C15.175 9.16378 15.0735 9.15352 13.5017 9.16471C13.167 9.16637 12.9029 8.67014 11.8993 7.67333C10.9971 6.80914 10.4126 6.45704 9.88184 6.45968C8.85148 6.46481 8.93066 7.29612 8.94513 8.30189C8.95394 9.3924 8.94546 9.04753 8.95324 9.11607C8.89318 9.1399 8.72102 9.18782 8.27142 9.19006C3.98162 9.2114 1.15433 2.45419 1.04039 1.16048C1.07756 1.15693 1.58937 1.1564 2.7617 1.1499Z" fill="white"/>
</svg>
