<svg width="15" height="15" viewBox="0 0 15 15" fill="none" xmlns="http://www.w3.org/2000/svg">
<path d="M14.5037 7.48124C14.4949 11.3634 11.3314 14.5126 7.44926 14.5038C6.29725 14.5012 5.22016 14.1963 4.26172 13.702L1.52706 14.4574C0.891541 14.6347 0.266098 14.0037 0.446249 13.3689L1.21403 10.6377C0.726807 9.67708 0.424055 8.60136 0.426665 7.44935C0.435459 3.56716 3.6017 0.417971 7.48115 0.426759C11.3633 0.435553 14.5125 3.59905 14.5037 7.48124ZM13.448 7.47885C13.4555 4.16854 10.7891 1.49004 7.47875 1.48254C4.16844 1.47504 1.48994 4.14143 1.48245 7.45174C1.48005 8.50752 1.75275 9.49794 2.23196 10.3596C2.29767 10.4807 2.31659 10.6237 2.27779 10.7584L1.54605 13.3577L4.14591 12.6377C4.28071 12.5995 4.42365 12.6164 4.54447 12.6854C5.4067 13.1685 6.39587 13.4457 7.45165 13.4481C10.762 13.4555 13.4405 10.7892 13.448 7.47885ZM10.6272 9.85073C10.6269 9.96345 10.5852 10.1448 10.4172 10.2984C10.2491 10.452 9.84122 10.8855 9.01364 10.8836C8.18606 10.8817 7.39009 10.2778 7.27756 10.1951C7.16502 10.1096 5.41608 9.02784 4.74633 7.31891C4.18867 5.89619 4.30205 5.60776 4.33024 5.29988C4.35844 4.99201 4.73941 4.30551 5.1329 4.16618C5.52639 4.02685 5.86182 4.02761 5.93046 4.06901C5.9991 4.1104 6.04284 4.22323 6.12493 4.39388C6.20978 4.56179 6.61483 5.38754 6.66947 5.54163C6.72686 5.69573 6.7541 5.80852 6.58613 5.92087C6.41816 6.03046 6.03801 6.35404 5.92506 6.45001C5.81211 6.54874 5.79814 6.64768 5.88299 6.81559C5.96785 6.9835 6.14258 7.52554 6.71301 8.16745C7.15729 8.66885 7.70641 9.00828 7.8739 9.10489C8.04139 9.20425 8.13507 9.11648 8.21775 9.03143C8.2949 8.95737 8.41609 8.86417 8.51251 8.7819C8.61168 8.69689 8.68048 8.66955 8.79333 8.61482C8.90618 8.56009 9.00235 8.5878 9.08749 8.62924C9.17262 8.67067 10.0022 8.99973 10.3346 9.14895C10.6147 9.27606 10.6199 9.40805 10.6224 9.52903C10.6277 9.62802 10.6274 9.74075 10.6272 9.85073Z" fill="white"/>
</svg>
